<mxfile host="app.diagrams.net" modified="2023-05-17T16:50:16.031Z" agent="Mozilla/5.0 (Macintosh; Intel Mac OS X 10_15_7) AppleWebKit/605.1.15 (KHTML, like Gecko) Version/16.4 Safari/605.1.15" version="21.3.2" etag="gCe2mG0I6ypn4zrD5Fep" type="github">
  <diagram name="Page-1" id="TOpz_gU_0tLDTX0xRvxz">
    <mxGraphModel>
      <root>
        <mxCell id="0" />
        <mxCell id="1" parent="0" />
      </root>
    </mxGraphModel>
  </diagram>
</mxfile>
